<svg id="Calque_1" data-name="Calque 1" xmlns="http://www.w3.org/2000/svg" viewBox="0 0 567.81 102.63"><defs><style>.cls-1{fill:#020202;}</style></defs><path class="cls-1" d="M4.33,3.53H49.66V21.85H25.59V43.12h23V60.5h-23v40.26H4.33Z"/><path class="cls-1" d="M52.86,51.81C52.86,27.47,62,.86,90.31,1c28.22-.13,37.31,26.48,37.18,50.82,0,24.61-8.56,51-37.18,50.82C61.56,102.76,53.13,76.42,52.86,51.81Zm22.47.27c0,13.37,2.68,32.63,15,33.17,12.17-.54,14.85-19.8,14.85-33.17s-2.68-30.36-14.85-31.16C78,21.72,75.33,38.84,75.33,52.08Z"/><path class="cls-1" d="M192.48,100.76H169.61l-14.31-30H153v30H132.16V3.53c5.48-.13,18.46-2.14,24.61-2.14s13.64.27,20.06,3.61c10.56,5.35,16.31,16.59,15.65,36.78-1.34,16.45-7.23,24.34-16.19,27.55ZM171.61,37.23c0-8.29-2.94-17.25-11.77-17.25a37,37,0,0,0-6.82.67V54.89C165.86,59.7,171.61,49.27,171.61,37.23Z"/><path class="cls-1" d="M192.2,21.85l1.47-18.32h56.84l1.74,18.32H233.66v78.91H211.73V21.85Z"/><path class="cls-1" d="M377.08,3.53h45.34V21.85H398.34V43.12h23V60.5h-23v40.26H377.08Z"/><path class="cls-1" d="M427.49,3.53h21.8v97.23h-21.8Z"/><path class="cls-1" d="M456.37,100.76V3.53h43.87V21.85H477.77V43.12h21.4V60.5h-21.4V81.77h22.47v19Z"/><path class="cls-1" d="M565.23,100.76H542.36l-14.31-30h-2.27v30H504.91V3.53c5.49-.13,18.46-2.14,24.61-2.14s13.64.27,20.06,3.61c10.57,5.35,16.32,16.59,15.65,36.78-1.34,16.45-7.22,24.34-16.18,27.55ZM544.37,37.23c0-8.29-3-17.25-11.77-17.25a36.93,36.93,0,0,0-6.82.67V54.89C538.62,59.7,544.37,49.27,544.37,37.23Z"/><path class="cls-1" d="M307.36,46.54c-3.73,1.09-5.75,4.42-5.67,8.31.23,4.42,3.49,6.9,7.69,6.9,3,0,6.44-1.24,8.07-3.8A68.77,68.77,0,0,1,307.36,46.54Z"/><path class="cls-1" d="M311.24,35.83a8.14,8.14,0,0,0,6.52-7.53c.15-3.42-1.86-5.74-5.05-5.74-3.88,0-5.43,2.48-5.2,5.89C307.75,31.25,309.14,34.51,311.24,35.83Z"/><path class="cls-1" d="M270.4,3.54V84h86.38V3.54Zm61.33,67.84c-2.25-1.94-4.5-4-6.83-6.21a20.59,20.59,0,0,1-13,6.44c-4.89.62-10.48,0-14.36-2.56a16.56,16.56,0,0,1-6.75-10.56c-1.63-8.54,2.56-16.61,10.71-19.71a17.47,17.47,0,0,1-4.35-12.5c.7-9.47,8.23-14,16.69-13.35,9,.62,13.89,7,13.27,16.07-.38,6.83-4.58,10.24-10.16,12.88a53.49,53.49,0,0,0,7,8.07c1.32-1.62,3.18-4.19,4.35-5.9l8.15,6.37c-1.4,1.94-3.42,4.58-5,6.52,2.48,2.48,5.05,4.89,7.37,6.91Z"/><rect class="cls-1" x="270.4" y="95.48" width="86.38" height="5.28"/></svg>